<?xml version="1.0" encoding="utf-8"?>
<!-- Generator: Adobe Illustrator 19.0.0, SVG Export Plug-In . SVG Version: 6.00 Build 0)  -->
<svg version="1.2" baseProfile="tiny" id="Layer_1" xmlns="http://www.w3.org/2000/svg" xmlns:xlink="http://www.w3.org/1999/xlink"
	 x="0px" y="0px" viewBox="0 0 1134.2 243.7" xml:space="preserve">
<g id="XMLID_3_">
	<path id="XMLID_4_" fill="#ffffff" d="M136,61.8v25.6h-78c-3.6,0-6.7,1.3-9.2,3.7c-2.5,2.5-3.7,5.6-3.7,9.2c0,3.6,1.2,6.8,3.7,9.4
		c2.5,2.6,5.6,3.9,9.2,3.9h51.8c5.4,0,10.4,1,15.1,3c4.7,2,8.8,4.8,12.4,8.2c3.6,3.5,6.3,7.5,8.4,12.2c2,4.7,3,9.7,3,15.1
		c0,5.4-1,10.4-3,15.1c-2,4.7-4.8,8.8-8.4,12.4c-3.6,3.6-7.7,6.3-12.4,8.4c-4.7,2-9.7,3-15.1,3H32v-25.6h77.8c3.8,0,7-1.2,9.5-3.7
		c2.5-2.5,3.7-5.7,3.7-9.5c0-3.6-1.3-6.7-3.7-9.2c-2.5-2.5-5.7-3.7-9.5-3.7H57.9c-5.4,0-10.4-1-15.1-3c-4.7-2-8.8-4.8-12.2-8.4
		c-3.5-3.6-6.2-7.7-8.2-12.4c-2-4.7-3-9.7-3-15.1c0-5.4,1-10.4,3-15.1c2-4.7,4.8-8.8,8.2-12.2s7.5-6.2,12.2-8.2c4.7-2,9.7-3,15.1-3
		H136z"/>
	<path id="XMLID_6_" fill="#ffffff" d="M221.2,61.8c9,0,17.4,1.7,25.2,5c7.8,3.4,14.6,8,20.4,13.8c5.9,5.9,10.5,12.7,13.8,20.4
		c3.4,7.8,5,16.2,5,25.2v64.8h-64.5c-8.8,0-17.2-1.7-25.1-5c-7.9-3.4-14.8-8-20.7-14c-6-5.9-10.6-12.9-14-20.7
		c-3.4-7.9-5-16.2-5-25.1c0-9,1.7-17.4,5-25.2c3.4-7.8,8-14.6,14-20.4c5.9-5.9,12.9-10.5,20.7-13.8C204,63.5,212.4,61.8,221.2,61.8z
		 M260.1,165.5v-39.2c0-5.4-1-10.4-3-15.1c-2-4.7-4.8-8.8-8.4-12.4c-3.6-3.6-7.7-6.3-12.4-8.4c-4.7-2-9.7-3-15.1-3
		c-5.4,0-10.5,1-15.3,3c-4.8,2-9,4.8-12.5,8.4c-3.6,3.6-6.3,7.7-8.4,12.4c-2,4.7-3,9.7-3,15.1c0,5.4,1,10.5,3,15.3
		c2,4.8,4.8,9,8.4,12.5c3.6,3.6,7.7,6.3,12.5,8.4c4.8,2,9.9,3,15.3,3H260.1z"/>
	<path id="XMLID_9_" fill="#ffffff" d="M370.7,165.5v25.6H358c-8.8,0-17.2-1.7-25.1-5c-7.9-3.4-14.8-8-20.7-14
		c-6-5.9-10.6-12.9-14-20.7c-3.4-7.9-5-16.2-5-25.1V10h25.6v77.8h51.8v25.6h-51.8v13c0,5.4,1,10.5,3,15.3c2,4.8,4.8,9,8.4,12.5
		c3.6,3.6,7.7,6.3,12.5,8.4c4.8,2,9.9,3,15.3,3H370.7z"/>
	<path id="XMLID_11_" fill="#ffffff" d="M509.5,61.8v64.5c0,8.8-1.7,17.2-5,25.1c-3.4,7.9-8,14.8-14,20.7c-6,6-12.8,10.6-20.6,14
		c-7.8,3.4-16.2,5-25.2,5c-8.8,0-17.2-1.7-25.1-5c-7.9-3.4-14.7-8-20.6-14c-5.9-5.9-10.5-12.9-13.8-20.7c-3.4-7.9-5-16.2-5-25.1
		V61.8h25.6v64.5c0,5.4,1,10.5,3,15.3c2,4.8,4.8,9,8.4,12.5c3.6,3.6,7.7,6.3,12.4,8.4c4.7,2,9.7,3,15.1,3c5.4,0,10.5-1,15.3-3
		c4.8-2,9-4.8,12.5-8.4c3.6-3.6,6.3-7.7,8.4-12.5c2-4.8,3-9.9,3-15.3V61.8H509.5z"/>
	<path id="XMLID_13_" fill="#ffffff" d="M646.6,10v116.4c0,8.8-1.7,17.2-5,25.1c-3.4,7.9-8,14.8-13.8,20.7c-5.9,6-12.7,10.6-20.6,14
		c-7.9,3.4-16.2,5-25.1,5c-8.8,0-17.2-1.7-25.1-5c-7.9-3.4-14.8-8-20.7-14c-6-5.9-10.6-12.9-14-20.7c-3.4-7.9-5-16.2-5-25.1
		c0-9,1.7-17.4,5-25.2c3.4-7.8,8-14.6,14-20.4c5.9-5.9,12.9-10.5,20.7-13.8c7.9-3.4,16.2-5,25.1-5H621V10H646.6z M582.1,165.5
		c5.4,0,10.4-1,15.1-3c4.7-2,8.8-4.8,12.4-8.4c3.6-3.6,6.3-7.7,8.4-12.5c2-4.8,3-9.9,3-15.3V87.4h-38.9c-5.4,0-10.5,1-15.3,3
		c-4.8,2-9,4.8-12.5,8.4c-3.6,3.6-6.3,7.7-8.4,12.4c-2,4.7-3,9.7-3,15.1c0,5.4,1,10.5,3,15.3c2,4.8,4.8,9,8.4,12.5
		c3.6,3.6,7.7,6.3,12.5,8.4C571.6,164.5,576.7,165.5,582.1,165.5z"/>
	<path id="XMLID_16_" fill="#ffffff" d="M720,61.8c9,0,17.4,1.7,25.2,5c7.8,3.4,14.6,8,20.4,13.8c5.9,5.9,10.5,12.7,13.8,20.4
		c3.4,7.8,5,16.2,5,25.2v64.8H720c-8.8,0-17.2-1.7-25.1-5c-7.9-3.4-14.8-8-20.7-14c-6-5.9-10.6-12.9-14-20.7c-3.4-7.9-5-16.2-5-25.1
		c0-9,1.7-17.4,5-25.2c3.4-7.8,8-14.6,14-20.4c5.9-5.9,12.9-10.5,20.7-13.8C702.8,63.5,711.2,61.8,720,61.8z M758.9,165.5v-39.2
		c0-5.4-1-10.4-3-15.1c-2-4.7-4.8-8.8-8.4-12.4c-3.6-3.6-7.7-6.3-12.4-8.4c-4.7-2-9.7-3-15.1-3c-5.4,0-10.5,1-15.3,3
		c-4.8,2-9,4.8-12.5,8.4c-3.6,3.6-6.3,7.7-8.4,12.4c-2,4.7-3,9.7-3,15.1c0,5.4,1,10.5,3,15.3c2,4.8,4.8,9,8.4,12.5
		c3.6,3.6,7.7,6.3,12.5,8.4c4.8,2,9.9,3,15.3,3H758.9z"/>
	<path id="XMLID_19_" fill="#ffffff" d="M869.5,165.5v25.6h-12.7c-8.8,0-17.2-1.7-25.1-5c-7.9-3.4-14.8-8-20.7-14
		c-6-5.9-10.6-12.9-14-20.7c-3.4-7.9-5-16.2-5-25.1V10h25.6v77.8h51.8v25.6h-51.8v13c0,5.4,1,10.5,3,15.3c2,4.8,4.8,9,8.4,12.5
		c3.6,3.6,7.7,6.3,12.5,8.4c4.8,2,9.9,3,15.3,3H869.5z"/>
	<path id="XMLID_21_" fill="#ffffff" d="M943.2,61.8c9,0,17.4,1.7,25.2,5c7.8,3.4,14.6,8,20.4,13.8c5.9,5.9,10.5,12.7,13.8,20.4
		c3.4,7.8,5,16.2,5,25.2v64.8h-64.5c-8.8,0-17.2-1.7-25.1-5c-7.9-3.4-14.8-8-20.7-14c-6-5.9-10.6-12.9-14-20.7
		c-3.4-7.9-5-16.2-5-25.1c0-9,1.7-17.4,5-25.2c3.4-7.8,8-14.6,14-20.4c5.9-5.9,12.9-10.5,20.7-13.8C926,63.5,934.4,61.8,943.2,61.8z
		 M982.1,165.5v-39.2c0-5.4-1-10.4-3-15.1c-2-4.7-4.8-8.8-8.4-12.4c-3.6-3.6-7.7-6.3-12.4-8.4c-4.7-2-9.7-3-15.1-3
		c-5.4,0-10.5,1-15.3,3c-4.8,2-9,4.8-12.5,8.4c-3.6,3.6-6.3,7.7-8.4,12.4c-2,4.7-3,9.7-3,15.1c0,5.4,1,10.5,3,15.3
		c2,4.8,4.8,9,8.4,12.5c3.6,3.6,7.7,6.3,12.5,8.4c4.8,2,9.9,3,15.3,3H982.1z"/>
</g>
<g id="XMLID_1_">
</g>
<g id="XMLID_2_">
</g>
<g id="XMLID_24_">
</g>
<g id="XMLID_25_">
</g>
<g id="XMLID_26_">
</g>
<g id="XMLID_27_">
</g>
</svg>

